D:\school\WTK\thesis\model\3dpredictsim\Results\Batchsim_tmt_linear_v2\Pog_s1_tmt_aCst_d05_k1000_ig24_pas_GRF.mot
nRows=25
nColumns=19

name D:\school\WTK\thesis\model\3dpredictsim\Results\Batchsim_tmt_linear_v2\Pog_s1_tmt_aCst_d05_k1000_ig24_pas_GRF.mot
datacolumns 19
datarows 25
range 0.0000000000 0.2581433731
endheader
time 	ground_force_vx	ground_force_vy	ground_force_vz	ground_force_px	ground_force_py	ground_force_pz	1_ground_force_vx	1_ground_force_vy	1_ground_force_vz	1_ground_force_px	1_ground_force_py	1_ground_force_pz	ground_torque_x	ground_torque_y	ground_torque_z	1_ground_torque_x	1_ground_torque_y	1_ground_torque_z
        0.0000000000	      -59.7169431043	       41.6690736915	       10.4791365008	        0.1623041458	        0.0000000000	        0.0470268674	      126.2915558003	      525.5680363969	        4.5419436606	       -0.3464188647	        0.0000000000	       -0.0489792366	        0.0000000000	        0.0000000000	        0.0000000000	        0.0000000000	        0.0000000000	        0.0000000000	
        0.0107559739	     -110.6824628292	       95.3460854586	       26.2821311653	        0.1728000109	        0.0000000000	        0.0451436543	      100.2198557432	      437.1920647485	       -0.5540727332	       -0.3362787273	        0.0000000000	       -0.0476651480	        0.0000000000	        0.0000000000	        0.0000000000	        0.0000000000	        0.0000000000	        0.0000000000	
        0.0215119478	     -113.4264378952	      206.2115263049	       49.6527962308	        0.1796573560	        0.0000000000	        0.0441505968	       65.6722372009	      334.8469924734	       -6.4576440334	       -0.3199515761	        0.0000000000	       -0.0451786380	        0.0000000000	        0.0000000000	        0.0000000000	        0.0000000000	        0.0000000000	        0.0000000000	
        0.0322679216	      -61.2359337552	      376.4836793483	        7.9085012904	        0.1846474098	        0.0000000000	        0.0433673622	       30.4702683397	      235.5062644068	       -5.7463241045	       -0.2943589959	        0.0000000000	       -0.0407323317	        0.0000000000	        0.0000000000	        0.0000000000	        0.0000000000	        0.0000000000	        0.0000000000	
        0.0430238955	      -72.6822487542	      588.5125954640	       -6.7249395358	        0.1931810692	        0.0000000000	        0.0455491241	        7.1299164629	      161.0306343095	       -8.8847031553	       -0.2635818103	        0.0000000000	       -0.0334382395	        0.0000000000	        0.0000000000	        0.0000000000	        0.0000000000	        0.0000000000	        0.0000000000	
        0.0537798694	     -111.6830929109	      794.8185825593	      -14.4433211304	        0.2017536082	        0.0000000000	        0.0481305892	       -1.3959092034	      134.3521993364	      -12.5048026825	       -0.2596134325	        0.0000000000	       -0.0323705682	        0.0000000000	        0.0000000000	        0.0000000000	        0.0000000000	        0.0000000000	        0.0000000000	
        0.0645358433	     -128.0350411060	      898.8023063451	      -17.9133125202	        0.2075433782	        0.0000000000	        0.0497235501	       -2.0891722591	      101.2417427535	      -14.2240955347	       -0.2590086786	        0.0000000000	       -0.0325827044	        0.0000000000	        0.0000000000	        0.0000000000	        0.0000000000	        0.0000000000	        0.0000000000	
        0.0752918171	     -124.9820301110	      905.1646802236	      -18.2278050457	        0.2117695680	        0.0000000000	        0.0507627625	       -4.9549047079	       64.8483581564	      -13.2630493297	       -0.2585304755	        0.0000000000	       -0.0327080492	        0.0000000000	        0.0000000000	        0.0000000000	        0.0000000000	        0.0000000000	        0.0000000000	
        0.0860477910	     -114.7861863622	      868.8634078126	      -17.7118260343	        0.2154217271	        0.0000000000	        0.0515132698	       -9.0134853444	       26.8255370402	       -6.6490228546	       -0.2588754159	        0.0000000000	       -0.0323691166	        0.0000000000	        0.0000000000	        0.0000000000	        0.0000000000	        0.0000000000	        0.0000000000	
        0.0968037649	     -102.4052807717	      830.8426358621	      -16.1301746341	        0.2192788092	        0.0000000000	        0.0521506168	        0.1602474206	       -0.1588408837	        0.0131724123	        0.0000000000	        0.0000000000	        0.0000000000	        0.0000000000	        0.0000000000	        0.0000000000	        0.0000000000	        0.0000000000	        0.0000000000	
        0.1075597388	      -93.4691517056	      806.1528132052	      -17.1982593727	        0.2244229379	        0.0000000000	        0.0528116825	        0.0006142593	       -0.0005008551	       -0.0000034900	        0.0000000000	        0.0000000000	        0.0000000000	        0.0000000000	        0.0000000000	        0.0000000000	        0.0000000000	        0.0000000000	        0.0000000000	
        0.1183157127	      -86.1148967056	      782.6290151343	      -17.1524904651	        0.2305581618	        0.0000000000	        0.0530291562	        0.0002607725	       -0.0001849839	       -0.0000065189	        0.0000000000	        0.0000000000	        0.0000000000	        0.0000000000	        0.0000000000	        0.0000000000	        0.0000000000	        0.0000000000	        0.0000000000	
        0.1290716865	      -77.6974538497	      747.5314701983	      -16.9045192951	        0.2364944112	        0.0000000000	        0.0531393955	        0.0018560598	       -0.0011805627	       -0.0000620161	        0.0000000000	        0.0000000000	        0.0000000000	        0.0000000000	        0.0000000000	        0.0000000000	        0.0000000000	        0.0000000000	        0.0000000000	
        0.1398276604	      -69.5612676143	      711.2825093796	      -16.5926838757	        0.2423377961	        0.0000000000	        0.0531274064	        0.0041065608	       -0.0023949868	       -0.0001542924	        0.0000000000	        0.0000000000	        0.0000000000	        0.0000000000	        0.0000000000	        0.0000000000	        0.0000000000	        0.0000000000	        0.0000000000	
        0.1505836343	      -61.8024024063	      680.4722734373	      -16.5079629162	        0.2480671927	        0.0000000000	        0.0530756460	       -0.0623420100	        0.0338531380	        0.0025049223	        0.0000000000	        0.0000000000	        0.0000000000	        0.0000000000	        0.0000000000	        0.0000000000	        0.0000000000	        0.0000000000	        0.0000000000	
        0.1613396082	      -54.5136324312	      655.7737642786	      -16.8926545834	        0.2535084091	        0.0000000000	        0.0530186548	       -0.0439630295	        0.0224703283	        0.0018575186	        0.0000000000	        0.0000000000	        0.0000000000	        0.0000000000	        0.0000000000	        0.0000000000	        0.0000000000	        0.0000000000	        0.0000000000	
        0.1720955820	      -47.9395679398	      636.6467987379	      -17.2963208204	        0.2586444578	        0.0000000000	        0.0529488251	       -0.0314515827	        0.0152641409	        0.0013752436	        0.0000000000	        0.0000000000	        0.0000000000	        0.0000000000	        0.0000000000	        0.0000000000	        0.0000000000	        0.0000000000	        0.0000000000	
        0.1828515559	      -41.9963557460	      621.9384741325	      -17.5787233919	        0.2634617136	        0.0000000000	        0.0528615594	       -0.0279826257	        0.0129790209	        0.0012529096	        0.0000000000	        0.0000000000	        0.0000000000	        0.0000000000	        0.0000000000	        0.0000000000	        0.0000000000	        0.0000000000	        0.0000000000	
        0.1936075298	      -37.6582048996	      611.5448158672	      -18.1416889552	        0.2679626120	        0.0000000000	        0.0527453799	       -0.0318690953	        0.0142024549	        0.0014513567	        0.0000000000	        0.0000000000	        0.0000000000	        0.0000000000	        0.0000000000	        0.0000000000	        0.0000000000	        0.0000000000	        0.0000000000	
        0.2043635037	      -33.9863294354	      604.3227554413	      -19.0160710917	        0.2721473996	        0.0000000000	        0.0525967373	       -0.0448932468	        0.0193210862	        0.0020817807	        0.0000000000	        0.0000000000	        0.0000000000	        0.0000000000	        0.0000000000	        0.0000000000	        0.0000000000	        0.0000000000	        0.0000000000	
        0.2151194775	      -30.4630246117	      598.3679361687	      -19.8878403538	        0.2760404870	        0.0000000000	        0.0524309551	       -0.0737389134	        0.0307903666	        0.0034870747	        0.0000000000	        0.0000000000	        0.0000000000	        0.0000000000	        0.0000000000	        0.0000000000	        0.0000000000	        0.0000000000	        0.0000000000	
        0.2258754514	      -27.0864562488	      592.7868482763	      -20.3907605117	        0.2796392386	        0.0000000000	        0.0522663257	       -0.1321950215	        0.0537729870	        0.0063594995	        0.0000000000	        0.0000000000	        0.0000000000	        0.0000000000	        0.0000000000	        0.0000000000	        0.0000000000	        0.0000000000	        0.0000000000	
        0.2366314253	      -23.8068140679	      586.7564127779	      -20.6656500798	        0.2829343832	        0.0000000000	        0.0521061822	       -0.2423564239	        0.0963982703	        0.0117953050	        0.0000000000	        0.0000000000	        0.0000000000	        0.0000000000	        0.0000000000	        0.0000000000	        0.0000000000	        0.0000000000	        0.0000000000	
        0.2473873992	      -20.4494764821	      580.0005687125	      -20.8185328508	        0.2859463343	        0.0000000000	        0.0519519143	       -0.4298953628	        0.1678042160	        0.0210964747	        0.0000000000	        0.0000000000	        0.0000000000	        0.0000000000	        0.0000000000	        0.0000000000	        0.0000000000	        0.0000000000	        0.0000000000	
        0.2581433731	      -16.8840192495	      572.2966385062	      -20.7074267558	        0.2886987744	        0.0000000000	        0.0518073420	       -0.7158160225	        0.2749293941	        0.0353202234	        0.0000000000	        0.0000000000	        0.0000000000	        0.0000000000	        0.0000000000	        0.0000000000	        0.0000000000	        0.0000000000	        0.0000000000	
